<mxfile host="app.diagrams.net" modified="2022-06-13T04:00:03.821Z" agent="5.0 (Macintosh; Intel Mac OS X 10_15_7) AppleWebKit/537.36 (KHTML, like Gecko) Chrome/102.0.5005.115 Safari/537.36" etag="bquVhWLIY16259B3Uw-U" version="20.0.1" type="github">
  <diagram id="Txt2BEVv3oNJTtMbV_xs" name="Page-1">
    <mxGraphModel dx="1251" dy="660" grid="1" gridSize="10" guides="1" tooltips="1" connect="1" arrows="1" fold="1" page="1" pageScale="1" pageWidth="827" pageHeight="1169" math="0" shadow="0">
      <root>
        <mxCell id="0" />
        <mxCell id="1" parent="0" />
        <mxCell id="x4I3uNdSeFds2r5TuPuR-18" value="" style="edgeStyle=orthogonalEdgeStyle;rounded=0;orthogonalLoop=1;jettySize=auto;html=1;fontSize=10;entryX=0.5;entryY=0;entryDx=0;entryDy=0;" edge="1" parent="1" source="x4I3uNdSeFds2r5TuPuR-1" target="x4I3uNdSeFds2r5TuPuR-2">
          <mxGeometry relative="1" as="geometry" />
        </mxCell>
        <mxCell id="x4I3uNdSeFds2r5TuPuR-1" value="&lt;font style=&quot;font-size: 10px;&quot;&gt;疑似网络、数据安全事件&lt;/font&gt;" style="rounded=1;whiteSpace=wrap;html=1;" vertex="1" parent="1">
          <mxGeometry x="280" y="60" width="120" height="30" as="geometry" />
        </mxCell>
        <mxCell id="x4I3uNdSeFds2r5TuPuR-19" value="" style="edgeStyle=orthogonalEdgeStyle;rounded=0;orthogonalLoop=1;jettySize=auto;html=1;fontSize=10;entryX=0.5;entryY=0;entryDx=0;entryDy=0;" edge="1" parent="1" source="x4I3uNdSeFds2r5TuPuR-2" target="x4I3uNdSeFds2r5TuPuR-3">
          <mxGeometry relative="1" as="geometry" />
        </mxCell>
        <mxCell id="x4I3uNdSeFds2r5TuPuR-2" value="网络隔离" style="rounded=0;whiteSpace=wrap;html=1;fontSize=10;" vertex="1" parent="1">
          <mxGeometry x="287.5" y="130" width="105" height="30" as="geometry" />
        </mxCell>
        <mxCell id="x4I3uNdSeFds2r5TuPuR-20" value="" style="edgeStyle=orthogonalEdgeStyle;rounded=0;orthogonalLoop=1;jettySize=auto;html=1;fontSize=10;entryX=0.5;entryY=0;entryDx=0;entryDy=0;" edge="1" parent="1" source="x4I3uNdSeFds2r5TuPuR-3" target="x4I3uNdSeFds2r5TuPuR-4">
          <mxGeometry relative="1" as="geometry" />
        </mxCell>
        <mxCell id="x4I3uNdSeFds2r5TuPuR-3" value="保留现场" style="rounded=0;whiteSpace=wrap;html=1;fontSize=10;" vertex="1" parent="1">
          <mxGeometry x="287.5" y="200" width="105" height="30" as="geometry" />
        </mxCell>
        <mxCell id="x4I3uNdSeFds2r5TuPuR-22" value="" style="edgeStyle=orthogonalEdgeStyle;rounded=0;orthogonalLoop=1;jettySize=auto;html=1;fontSize=10;" edge="1" parent="1" source="x4I3uNdSeFds2r5TuPuR-4" target="x4I3uNdSeFds2r5TuPuR-5">
          <mxGeometry relative="1" as="geometry" />
        </mxCell>
        <mxCell id="x4I3uNdSeFds2r5TuPuR-4" value="引入安全团队" style="rounded=0;whiteSpace=wrap;html=1;fontSize=10;" vertex="1" parent="1">
          <mxGeometry x="287.5" y="270" width="105" height="30" as="geometry" />
        </mxCell>
        <mxCell id="x4I3uNdSeFds2r5TuPuR-23" value="" style="edgeStyle=orthogonalEdgeStyle;rounded=0;orthogonalLoop=1;jettySize=auto;html=1;fontSize=10;" edge="1" parent="1" source="x4I3uNdSeFds2r5TuPuR-5" target="x4I3uNdSeFds2r5TuPuR-6">
          <mxGeometry relative="1" as="geometry" />
        </mxCell>
        <mxCell id="x4I3uNdSeFds2r5TuPuR-5" value="应急与追溯" style="rounded=0;whiteSpace=wrap;html=1;fontSize=10;" vertex="1" parent="1">
          <mxGeometry x="287.5" y="340" width="105" height="30" as="geometry" />
        </mxCell>
        <mxCell id="x4I3uNdSeFds2r5TuPuR-9" value="" style="edgeStyle=orthogonalEdgeStyle;rounded=0;orthogonalLoop=1;jettySize=auto;html=1;fontSize=10;" edge="1" parent="1" source="x4I3uNdSeFds2r5TuPuR-6" target="x4I3uNdSeFds2r5TuPuR-7">
          <mxGeometry relative="1" as="geometry" />
        </mxCell>
        <mxCell id="x4I3uNdSeFds2r5TuPuR-11" value="" style="edgeStyle=orthogonalEdgeStyle;rounded=0;orthogonalLoop=1;jettySize=auto;html=1;fontSize=10;" edge="1" parent="1" source="x4I3uNdSeFds2r5TuPuR-6" target="x4I3uNdSeFds2r5TuPuR-8">
          <mxGeometry relative="1" as="geometry" />
        </mxCell>
        <mxCell id="x4I3uNdSeFds2r5TuPuR-12" value="是" style="edgeLabel;html=1;align=center;verticalAlign=middle;resizable=0;points=[];fontSize=10;" vertex="1" connectable="0" parent="x4I3uNdSeFds2r5TuPuR-11">
          <mxGeometry x="-0.0508" y="3" relative="1" as="geometry">
            <mxPoint x="2" as="offset" />
          </mxGeometry>
        </mxCell>
        <mxCell id="x4I3uNdSeFds2r5TuPuR-6" value="入侵事件" style="rhombus;whiteSpace=wrap;html=1;fontSize=10;" vertex="1" parent="1">
          <mxGeometry x="295" y="420" width="90" height="50" as="geometry" />
        </mxCell>
        <mxCell id="x4I3uNdSeFds2r5TuPuR-7" value="情况记录" style="rounded=0;whiteSpace=wrap;html=1;fontSize=10;" vertex="1" parent="1">
          <mxGeometry x="440" y="430" width="80" height="30" as="geometry" />
        </mxCell>
        <mxCell id="x4I3uNdSeFds2r5TuPuR-8" value="转入入侵事件处置流程" style="rounded=0;whiteSpace=wrap;html=1;fontSize=10;" vertex="1" parent="1">
          <mxGeometry x="287.5" y="520" width="105" height="30" as="geometry" />
        </mxCell>
        <mxCell id="x4I3uNdSeFds2r5TuPuR-10" value="否" style="text;html=1;align=center;verticalAlign=middle;resizable=0;points=[];autosize=1;strokeColor=none;fillColor=none;fontSize=10;" vertex="1" parent="1">
          <mxGeometry x="395" y="430" width="30" height="20" as="geometry" />
        </mxCell>
        <mxCell id="x4I3uNdSeFds2r5TuPuR-15" value="" style="shape=curlyBracket;whiteSpace=wrap;html=1;rounded=1;fontSize=10;" vertex="1" parent="1">
          <mxGeometry x="230" y="140" width="20" height="150" as="geometry" />
        </mxCell>
        <mxCell id="x4I3uNdSeFds2r5TuPuR-16" value="业务团队" style="text;html=1;align=center;verticalAlign=middle;resizable=0;points=[];autosize=1;strokeColor=none;fillColor=none;fontSize=10;" vertex="1" parent="1">
          <mxGeometry x="170" y="205" width="60" height="20" as="geometry" />
        </mxCell>
        <mxCell id="x4I3uNdSeFds2r5TuPuR-24" value="" style="shape=curlyBracket;whiteSpace=wrap;html=1;rounded=1;fontSize=10;" vertex="1" parent="1">
          <mxGeometry x="230" y="340" width="20" height="190" as="geometry" />
        </mxCell>
        <mxCell id="x4I3uNdSeFds2r5TuPuR-25" value="业务团队" style="text;html=1;align=center;verticalAlign=middle;resizable=0;points=[];autosize=1;strokeColor=none;fillColor=none;fontSize=10;" vertex="1" parent="1">
          <mxGeometry x="170" y="425" width="60" height="20" as="geometry" />
        </mxCell>
        <mxCell id="x4I3uNdSeFds2r5TuPuR-26" value="在不影响线上业务的情况下， &lt;br&gt;尽可能限制网络通信范围" style="text;html=1;align=left;verticalAlign=middle;resizable=0;points=[];autosize=1;strokeColor=none;fillColor=none;fontSize=10;" vertex="1" parent="1">
          <mxGeometry x="425" y="130" width="170" height="30" as="geometry" />
        </mxCell>
        <mxCell id="x4I3uNdSeFds2r5TuPuR-27" value="保留现场环境，避免删除系统日志文件，&lt;br&gt;待安全团队介入后进行应急响应与溯源。&lt;br&gt;自研上云环境可以保留系统镜像。" style="text;html=1;align=left;verticalAlign=middle;resizable=0;points=[];autosize=1;strokeColor=none;fillColor=none;fontSize=10;" vertex="1" parent="1">
          <mxGeometry x="425" y="195" width="230" height="40" as="geometry" />
        </mxCell>
        <mxCell id="x4I3uNdSeFds2r5TuPuR-28" value="接口人: CSIGSEC_helper、SecruityHelper" style="text;html=1;align=left;verticalAlign=middle;resizable=0;points=[];autosize=1;strokeColor=none;fillColor=none;fontSize=10;" vertex="1" parent="1">
          <mxGeometry x="425" y="275" width="240" height="20" as="geometry" />
        </mxCell>
      </root>
    </mxGraphModel>
  </diagram>
</mxfile>
